<svg xmlns="http://www.w3.org/2000/svg" viewBox="0 0 125.92 27.39"><defs><style>.cls-1{fill:#1e293f;}.cls-2,.cls-4{fill:#fff;}.cls-3{fill:none;}.cls-3,.cls-4{stroke:#1e293f;stroke-miterlimit:10;stroke-width:1.25px;}</style></defs><g id="Layer_6" data-name="Layer 6"><rect class="cls-1" x="-15.38" y="-9.84" width="178.15" height="45.74"/><circle class="cls-2" cx="52.17" cy="13.84" r="11.81"/><path class="cls-2" d="M61,13.84A8.83,8.83,0,1,1,52.17,5,8.82,8.82,0,0,1,61,13.84Z"/><path class="cls-3" d="M59.67,13.84a7.51,7.51,0,1,1-7.5-7.5A7.5,7.5,0,0,1,59.67,13.84Z"/><path class="cls-2" d="M55.54,13.84a3.38,3.38,0,1,1-3.37-3.37A3.37,3.37,0,0,1,55.54,13.84Z"/><line class="cls-4" x1="44.66" y1="13.84" x2="59.67" y2="13.84"/><line class="cls-4" x1="52.16" y1="21.35" x2="52.16" y2="6.34"/><line class="cls-4" x1="44.66" y1="13.84" x2="59.67" y2="13.84"/><line class="cls-4" x1="52.16" y1="21.35" x2="52.16" y2="6.34"/><line class="cls-4" x1="46.86" y1="19.15" x2="57.47" y2="8.54"/><line class="cls-4" x1="57.47" y1="19.15" x2="46.86" y2="8.54"/><path class="cls-2" d="M52.17,16.82a3,3,0,1,1,3-3A3,3,0,0,1,52.17,16.82Z"/><path class="cls-1" d="M52.17,11.4a2.45,2.45,0,1,1-2.45,2.44,2.43,2.43,0,0,1,2.45-2.44m0-1.06a3.51,3.51,0,1,0,3.5,3.5,3.51,3.51,0,0,0-3.5-3.5Z"/><circle class="cls-2" cx="77.94" cy="13.82" r="11.81"/><path class="cls-2" d="M86.76,13.82A8.83,8.83,0,1,1,77.94,5,8.83,8.83,0,0,1,86.76,13.82Z"/><path class="cls-3" d="M85.44,13.82a7.51,7.51,0,1,1-7.5-7.51A7.5,7.5,0,0,1,85.44,13.82Z"/><path class="cls-2" d="M81.31,13.82a3.38,3.38,0,1,1-3.37-3.38A3.38,3.38,0,0,1,81.31,13.82Z"/><line class="cls-4" x1="70.43" y1="13.82" x2="85.44" y2="13.82"/><line class="cls-4" x1="77.94" y1="21.32" x2="77.94" y2="6.32"/><line class="cls-4" x1="70.43" y1="13.82" x2="85.44" y2="13.82"/><line class="cls-4" x1="77.94" y1="21.32" x2="77.94" y2="6.32"/><line class="cls-4" x1="72.63" y1="19.12" x2="83.24" y2="8.51"/><line class="cls-4" x1="83.24" y1="19.12" x2="72.63" y2="8.51"/><path class="cls-2" d="M77.94,16.79a3,3,0,1,1,3-3A3,3,0,0,1,77.94,16.79Z"/><path class="cls-1" d="M77.94,11.38a2.44,2.44,0,1,1-2.44,2.44,2.44,2.44,0,0,1,2.44-2.44m0-1.07a3.51,3.51,0,1,0,3.5,3.51,3.52,3.52,0,0,0-3.5-3.51Z"/><path class="cls-2" d="M15.68,6.49a1.25,1.25,0,0,1-.41.5,1.1,1.1,0,0,1-.55.14A1.33,1.33,0,0,1,14,6.88l-.94-.55a9,9,0,0,0-1.27-.55,5.52,5.52,0,0,0-1.72-.25,5.15,5.15,0,0,0-1.56.22,3.16,3.16,0,0,0-1.12.6,2.38,2.38,0,0,0-.68.92,3,3,0,0,0-.22,1.17A2,2,0,0,0,6.94,9.8a4,4,0,0,0,1.21.93,11.49,11.49,0,0,0,1.71.68l2,.65a19.46,19.46,0,0,1,1.95.8A6.75,6.75,0,0,1,15.48,14a5.15,5.15,0,0,1,1.21,1.7,6,6,0,0,1,.46,2.45,7.9,7.9,0,0,1-.54,2.93,6.93,6.93,0,0,1-1.56,2.38,7.39,7.39,0,0,1-2.52,1.6,9.27,9.27,0,0,1-3.41.58A11.32,11.32,0,0,1,7,25.44a11.59,11.59,0,0,1-2-.62,9.73,9.73,0,0,1-1.84-1,9.41,9.41,0,0,1-1.53-1.24l1.25-2.07a1.86,1.86,0,0,1,.42-.37A1.07,1.07,0,0,1,3.76,20a1.53,1.53,0,0,1,.86.33c.31.21.67.46,1.09.72a8.27,8.27,0,0,0,1.49.73,5.68,5.68,0,0,0,2.05.33,4.22,4.22,0,0,0,2.85-.87,3.13,3.13,0,0,0,1-2.5,2.34,2.34,0,0,0-.45-1.49,3.81,3.81,0,0,0-1.21-1,9,9,0,0,0-1.71-.66c-.64-.18-1.29-.38-1.95-.59a17.94,17.94,0,0,1-1.95-.77,6.33,6.33,0,0,1-1.71-1.17,5.22,5.22,0,0,1-1.2-1.79,6.75,6.75,0,0,1-.46-2.66A6.33,6.33,0,0,1,3,6.21,6.46,6.46,0,0,1,4.43,4.08,7.42,7.42,0,0,1,6.81,2.59,8.67,8.67,0,0,1,10,2a10.93,10.93,0,0,1,3.77.64,8.69,8.69,0,0,1,2.94,1.79Z"/><path class="cls-2" d="M37.32,20a.8.8,0,0,1,.61.27l1.69,1.84a9.27,9.27,0,0,1-3.46,2.67,12.05,12.05,0,0,1-4.93.92,11.57,11.57,0,0,1-4.62-.88,10.16,10.16,0,0,1-3.51-2.44,10.79,10.79,0,0,1-2.23-3.74,14,14,0,0,1-.77-4.75A12.73,12.73,0,0,1,21,9.07a10.85,10.85,0,0,1,2.43-3.73,11,11,0,0,1,3.74-2.43A12.72,12.72,0,0,1,32,2a11.33,11.33,0,0,1,4.5.83A10.54,10.54,0,0,1,39.75,5L38.31,7a1.15,1.15,0,0,1-.33.33.88.88,0,0,1-.55.15,1.29,1.29,0,0,1-.75-.29,10.36,10.36,0,0,0-1-.63A8.1,8.1,0,0,0,34.21,6a8.58,8.58,0,0,0-5.29.28,6.64,6.64,0,0,0-2.34,1.62A7.5,7.5,0,0,0,25,10.45a9.76,9.76,0,0,0-.55,3.39A10.07,10.07,0,0,0,25,17.31a7.66,7.66,0,0,0,1.5,2.56,6.29,6.29,0,0,0,2.22,1.59,6.82,6.82,0,0,0,2.75.55,11.1,11.1,0,0,0,1.59-.1,6.44,6.44,0,0,0,1.31-.3,5.86,5.86,0,0,0,1.13-.54,6.28,6.28,0,0,0,1.06-.8,1.2,1.2,0,0,1,.34-.23A.82.82,0,0,1,37.32,20Z"/><path class="cls-2" d="M108,2.29V5.82h-7V25.4h-4.3V5.82h-7V2.29Z"/><path class="cls-2" d="M123.12,6.49a1.11,1.11,0,0,1-.41.5,1,1,0,0,1-.55.14,1.38,1.38,0,0,1-.72-.25l-.94-.55a8,8,0,0,0-1.27-.55,5.48,5.48,0,0,0-1.72-.25,5.13,5.13,0,0,0-1.55.22,3.07,3.07,0,0,0-1.12.6,2.28,2.28,0,0,0-.68.92,3,3,0,0,0-.23,1.17,2.05,2.05,0,0,0,.46,1.36,3.89,3.89,0,0,0,1.21.93,11.49,11.49,0,0,0,1.71.68l2,.65a19.63,19.63,0,0,1,2,.8A6.75,6.75,0,0,1,122.93,14a5.3,5.3,0,0,1,1.21,1.7,6,6,0,0,1,.45,2.45,8.11,8.11,0,0,1-.53,2.93,6.81,6.81,0,0,1-1.57,2.38,7.3,7.3,0,0,1-2.52,1.6,9.21,9.21,0,0,1-3.4.58,11.24,11.24,0,0,1-2.17-.21,11.69,11.69,0,0,1-2.06-.62,10,10,0,0,1-1.83-1A9.41,9.41,0,0,1,109,22.62l1.25-2.07a1.67,1.67,0,0,1,.42-.37,1.06,1.06,0,0,1,.55-.15,1.48,1.48,0,0,1,.86.33c.31.21.68.46,1.1.72a8.27,8.27,0,0,0,1.49.73,5.65,5.65,0,0,0,2,.33,4.21,4.21,0,0,0,2.84-.87,3.14,3.14,0,0,0,1-2.5,2.29,2.29,0,0,0-.46-1.49,3.66,3.66,0,0,0-1.2-1,9,9,0,0,0-1.71-.66c-.64-.18-1.29-.38-2-.59a17.94,17.94,0,0,1-2-.77,6.33,6.33,0,0,1-1.71-1.17,5.38,5.38,0,0,1-1.21-1.79,6.94,6.94,0,0,1-.45-2.66,6.33,6.33,0,0,1,.5-2.46,6.46,6.46,0,0,1,1.47-2.13,7.48,7.48,0,0,1,2.37-1.49A8.73,8.73,0,0,1,117.47,2a10.93,10.93,0,0,1,3.77.64,8.69,8.69,0,0,1,2.94,1.79Z"/></g></svg>