<svg xmlns="http://www.w3.org/2000/svg" viewBox="0 0 372.89 400"><defs><style>.cls-1{fill:#9cc;}.cls-2{fill:#fff;}.cls-2,.cls-3,.cls-4{fill-rule:evenodd;}.cls-3{fill:#696;}.cls-4{fill:#036;}.cls-5{fill:#fc6;}</style></defs><g id="Layer_4" data-name="Layer 4"><rect class="cls-1" width="372.89" height="400"/></g><g id="Color"><path class="cls-2" d="M228.77,296.77c-6.77,2.48-13.25,5.25-21.63,6.13-7.13,12.46-12.86,26.32-20,38.77-7.13-12.45-12.86-26.31-20-38.77-8-.76-14.2-3.39-20.61-5.77-6.25-2.78-12.5-5.2-18.78-10.28-14,3.6-27.86,10.69-41.83,13.33q7.35-20.64,13.24-41.27a74.6,74.6,0,0,1-11.82-21.72,2.48,2.48,0,0,0-.26-.19c-2.26-6-4.65-11.94-5.36-19.52C69.41,210,54.61,205,43,196.88q19.9-9.18,38.78-19.39A74.3,74.3,0,0,1,89,153.86c0-.1,0-.2,0-.29a67.58,67.58,0,0,1,8.82-15.46c-3.6-14-10.7-27.87-13.34-41.83q20.65,7.34,41.28,13.23c6.53-5.41,13.1-8.11,19.65-11.25,6.83-2.5,13.34-5.3,21.78-6.19,7.47-12.32,12.46-27.12,20.6-38.77q9.18,19.89,19.38,38.77c8,.84,14.2,3.37,20.6,5.75,6.25,2.78,12.51,5.33,18.79,10.3,14-3.6,27.87-10.69,41.83-13.33q-7.33,20.64-13.24,41.28c5.42,6.53,8.12,13.1,11.26,19.65,2.5,6.83,5.3,13.34,6.19,21.77,12.32,7.47,27.12,12.46,38.77,20.6q-19.9,9.18-38.77,19.39c-.84,8-3.38,14.2-5.76,20.61-2.78,6.25-5.33,12.5-10.29,18.77,3.92,13.81,9.83,27.59,13.76,41.4-13.9-3.6-27.81-9.19-41.71-12.8C242,291,235.38,293.58,228.77,296.77Z"/><path class="cls-3" d="M177.62,95.78c33.88-3.11,60.83,9.93,77.22,25,18.61,17.07,36.67,45.59,33.85,84.34-3,41.25-29.52,70.17-59.39,83.75a101.9,101.9,0,0,1-60.59,7.72A100.36,100.36,0,0,1,91.5,230.61c-6.43-18.61-8.82-38.78-2.38-61.77,9.75-34.77,36.5-61.11,72.47-70.68A103.74,103.74,0,0,1,177.62,95.78Zm-27.32,25c-26.21,12.5-47.64,39.57-47.52,76.62.16,46.7,38.18,83.75,84.34,83.75,46.65,0,84.42-36.71,84.35-84.34-.08-48.94-39.48-85.31-86.72-83.75C169.24,113.52,159.87,116.17,150.3,120.73Z"/><path class="cls-4" d="M318.4,325.87c-8.46-29.27-19.47-58.51-29.78-87.76,27.81-13.71,56.12-26.93,82.63-42-28.49-13.39-55.75-28-84.13-41.53,9.79-30,20.35-60,28.27-90-29,10.83-58,19.94-86.94,30.55-13.7-27.8-26.91-56.08-41.92-82.57-13.39,28.49-28,55.74-41.53,84.13C115,87,85,76.41,55,68.49,65.79,97.32,74.86,126.17,85.41,155Q44.64,176,3,196.16c26.85,15.21,55.54,28.58,83.7,42.48Q73,283.33,58,328c29.26-8.46,58.49-19.46,87.72-29.77,13.3,27.84,27.65,54.63,40.8,82.62,15.28-27,28.7-55.8,42.67-84.09m-1.27-2.7c-6.64,2.44-13,5.15-21.21,6-7,12.22-12.6,25.8-19.6,38-7-12.22-12.61-25.8-19.6-38-7.88-.74-13.92-3.32-20.2-5.65-6.13-2.73-12.25-5.1-18.41-10.08-13.68,3.53-27.32,10.48-41,13.07q7.2-20.24,13-40.47a72.84,72.84,0,0,1-11.59-21.29L89,235.5c-2.23-5.91-4.56-11.71-5.26-19.14-12.09-7.32-26.6-12.22-38-20.2q19.52-9,38-19A72.92,72.92,0,0,1,90.9,154a1.35,1.35,0,0,0,0-.29,67.05,67.05,0,0,1,8.65-15.16C96,124.86,89,111.22,86.44,97.53q20.24,7.2,40.47,13c6.4-5.31,12.84-8,19.26-11,6.7-2.44,13.08-5.19,21.35-6.06,7.32-12.08,12.22-26.59,20.2-38q9,19.5,19,38c7.8.82,13.92,3.3,20.2,5.63,6.13,2.73,12.26,5.23,18.42,10.1,13.68-3.52,27.32-10.48,41-13.07q-7.2,20.25-13,40.47c5.31,6.41,8,12.84,11,19.27,2.45,6.69,5.19,13.08,6.06,21.35,12.08,7.32,26.59,12.21,38,20.19q-19.51,9-38,19c-.82,7.79-3.31,13.92-5.64,20.21-2.73,6.12-5.23,12.25-10.09,18.4,3.85,13.54,9.64,27,13.49,40.58-13.62-3.53-27.27-9-40.89-12.54C240.89,288.47,234.4,291,227.93,294.09Z"/><g id="Layer_1" data-name="Layer 1"><polygon class="cls-5" points="308.31 8.5 208.06 171.47 252.46 178.14 90.07 395.63 179.19 212.55 134.78 205.89 263.9 1.84 308.31 8.5"/></g></g></svg>